<?xml version="1.0" encoding="utf-8"?>
<!-- Generator: Adobe Illustrator 16.0.0, SVG Export Plug-In . SVG Version: 6.00 Build 0)  -->
<!DOCTYPE svg PUBLIC "-//W3C//DTD SVG 1.1//EN" "http://www.w3.org/Graphics/SVG/1.1/DTD/svg11.dtd">
<svg version="1.1" id="图层_1" xmlns="http://www.w3.org/2000/svg" xmlns:xlink="http://www.w3.org/1999/xlink" x="0px" y="0px"
	 width="166px" height="189.042px" viewBox="0 0 166 189.042" enable-background="new 0 0 166 189.042" xml:space="preserve">
<g>
	<defs>
		<path id="SVGID_1_" d="M79.533,10.366c1.915-1.105,5.017-1.107,6.934,0l68.066,39.323c1.915,1.105,3.467,3.793,3.467,6.009v78.645
			c0,2.213-1.549,4.901-3.467,6.009l-68.066,39.323c-1.914,1.106-5.016,1.107-6.934,0l-68.066-39.323
			C9.552,139.246,8,136.559,8,134.343V55.698c0-2.213,1.549-4.901,3.467-6.009L79.533,10.366z M77.808,1.247
			c2.867-1.664,7.521-1.661,10.384,0l72.616,42.119c2.867,1.663,5.191,5.7,5.191,9.017v84.275c0,3.316-2.328,7.355-5.191,9.017
			l-72.616,42.12c-2.867,1.663-7.521,1.661-10.384,0l-72.616-42.12C2.325,144.012,0,139.975,0,136.658V52.383
			c0-3.316,2.329-7.355,5.192-9.017L77.808,1.247z"/>
	</defs>
	<clipPath id="SVGID_2_">
		<use xlink:href="#SVGID_1_"  overflow="visible"/>
	</clipPath>
	<rect x="-5" y="-5" clip-path="url(#SVGID_2_)" fill="#FFFFFF" width="176" height="199.042"/>
</g>
</svg>
